PathFileType	4	(X/Y/Z)	c:/Users/goper/Files/vsCode/490R/osim_files/C10/C10_Slow_05.trc
DataRate	CameraRate	NumFrames	NumMarkers	Units                	OrigDataRate	OrigDataStartFrame	OrigNumFrames
250.00	250.00	5	36	mm	250.0	1160	2319
                Frame#	Time	LPSIS			LASIS			LTH1			LTH2			LTH3			LTH4			LLFE			LMFE			LSH1			LSH2			LSH3			LSH4			LLMAL			LMMAL			LCAL			LMTP5			LTOE			LMTP1			RPSIS			RASIS			RTH1			RTH2			RTH3			RTH4			RLFE			RMFE			RSH1			RSH2			RSH3			RSH4			RLMAL			RMMAL			RCAL			RMTP1			RTOE			RMTP5		
		X1	Y1	Z1	X2	Y2	Z2	X3	Y3	Z3	X4	Y4	Z4	X5	Y5	Z5	X6	Y6	Z6	X7	Y7	Z7	X8	Y8	Z8	X9	Y9	Z9	X10	Y10	Z10	X11	Y11	Z11	X12	Y12	Z12	X13	Y13	Z13	X14	Y14	Z14	X15	Y15	Z15	X16	Y16	Z16	X17	Y17	Z17	X18	Y18	Z18	X19	Y19	Z19	X20	Y20	Z20	X21	Y21	Z21	X22	Y22	Z22	X23	Y23	Z23	X24	Y24	Z24	X25	Y25	Z25	X26	Y26	Z26	X27	Y27	Z27	X28	Y28	Z28	X29	Y29	Z29	X30	Y30	Z30	X31	Y31	Z31	X32	Y32	Z32	X33	Y33	Z33	X34	Y34	Z34	X35	Y35	Z35	X36	Y36	Z36

1160	4.63600	-717.66193	993.61005	251.25615	-880.62604	998.95392	389.66904	-891.42285	764.70117	433.71231	-909.30243	722.19232	424.90076	-943.85211	783.86542	411.24387	-953.13367	739.15930	404.00983	0.00000	0.00000	0.00000	-969.23895	488.74670	221.21997	-944.24091	402.28622	350.41568	-948.71399	355.50327	352.05890	-1002.19989	404.01321	330.24933	-997.70557	357.47549	333.59998	-965.05219	87.16410	304.45126	0.00000	0.00000	0.00000	-895.40283	40.66142	263.91580	-1073.58728	30.66715	311.78262	-1121.86963	50.38287	243.84950	-1080.94763	26.01370	201.81192	-723.38544	990.92737	169.82443	-878.60822	970.12152	55.82485	-788.08032	705.55243	20.83628	-797.05670	663.77582	20.22587	-848.22485	713.68341	12.01894	-851.82880	668.94525	14.86215	-818.94592	442.77097	62.68116	-844.48358	424.49759	172.71606	-710.60150	433.38452	60.60765	-678.74011	403.61374	58.72257	-748.81836	382.09271	57.99257	-710.70148	361.50607	54.78207	-480.24686	236.43568	104.50352	0.00000	0.00000	0.00000	-425.13913	271.62372	151.83502	-463.02899	93.65830	180.18466	-497.33084	65.37499	141.60036	-460.51706	101.24908	81.90486
1161	4.64000	-721.98663	994.26636	251.38629	-885.25940	1000.05975	389.80872	-894.62195	765.42426	433.66800	-912.27277	722.83069	424.88217	-947.25354	784.41162	411.12979	-956.33997	739.77026	403.91129	0.00000	0.00000	0.00000	-970.95819	488.69034	221.45682	-944.96857	402.71103	350.49496	-949.18799	355.66016	352.19873	-1003.09320	403.84351	330.54343	-998.24048	357.40219	333.76758	-965.06299	87.14535	304.48810	0.00000	0.00000	0.00000	-895.38940	40.67517	263.92017	-1073.58008	30.67220	311.76337	-1121.82788	50.41048	243.81923	-1080.86499	26.08870	201.76408	-727.30817	991.20050	170.10307	-881.97131	970.90466	55.62093	-794.46918	705.36603	20.92889	-803.98969	663.79492	20.20988	-854.82056	714.11237	13.05356	-858.67462	669.61621	14.86409	-829.50873	443.03989	62.82322	-854.73950	425.39380	173.28725	-721.67224	433.91644	60.47096	-689.61035	404.32578	58.59689	-759.62048	382.37445	58.57572	-721.37689	361.95721	55.21086	-490.05258	239.51373	105.36451	-500.00385	206.10852	180.51428	-433.41486	274.06705	152.79370	-472.65582	95.92938	179.69884	-507.04639	68.45553	141.04916	-470.59555	104.73019	81.35633
1162	4.64400	-726.23126	995.03833	251.56453	-889.85382	1001.06708	389.89557	-897.95624	766.19989	433.55896	-915.42969	723.59180	424.75784	-950.57751	785.00275	410.92175	-959.51215	740.46033	403.73206	0.00000	0.00000	0.00000	-972.70941	488.79639	221.71500	-946.07153	402.89914	350.52597	-949.61780	355.84747	352.41418	-1003.85400	403.71097	330.79037	-998.80011	357.32358	333.89963	-965.09210	87.13812	304.55142	0.00000	0.00000	0.00000	-895.36682	40.67498	263.91861	-1073.59070	30.70615	311.74368	-1121.74084	50.43958	243.78221	-1080.77502	26.14266	201.71747	-731.17474	991.56116	170.41794	-885.43225	971.71387	55.29313	-800.78400	705.29138	20.98398	-810.92688	663.85962	20.18892	-861.12207	714.82324	13.20794	-865.54181	670.38623	14.94167	-840.04633	443.46158	62.98966	-865.01471	426.40472	173.88506	-732.68555	434.60068	60.50484	-700.47607	405.15063	58.63585	-770.40710	382.73810	59.28518	-732.04620	362.58121	55.71878	-499.57397	242.78088	106.39159	-509.22427	209.16751	181.28883	-441.56625	276.01443	153.89893	-483.23914	97.99353	179.11990	-517.74969	71.41344	140.22845	-480.82788	107.92945	80.96925
1163	4.64800	-730.50903	995.95648	251.77556	-894.31476	1001.99139	389.87216	-901.20563	767.05963	433.41394	-918.58368	724.29877	424.62170	-953.95813	785.53809	410.78085	-962.76532	741.14166	403.56241	0.00000	0.00000	0.00000	-974.41333	488.87103	222.00891	-946.63733	403.20096	351.51993	-949.92969	355.95743	352.64035	-1004.70459	403.60977	331.04510	-999.30695	357.21097	334.01877	-964.62598	87.25167	305.01306	0.00000	0.00000	0.00000	-895.35992	40.69378	263.91412	-1073.57739	30.70767	311.74771	-1121.68494	50.43397	243.76712	-1080.70386	26.17555	201.68694	-734.64459	992.08698	170.54305	-888.72070	972.47638	54.94356	-807.11865	705.27551	21.07650	-817.91559	663.97162	20.20101	-867.17462	715.63312	13.23969	-872.38208	671.22339	14.98502	-850.60864	444.01041	63.10642	-875.29889	427.55600	174.41286	-743.62958	435.36710	60.64742	-711.31287	406.05923	58.80844	-781.12299	383.39368	59.87324	-742.68677	363.31985	56.21874	-508.81775	244.90617	107.32122	-518.95563	211.77846	181.90407	-450.20721	277.55594	155.20773	-494.78030	99.79994	178.45757	-529.18872	73.98389	139.37402	-492.09747	110.98701	80.34628
1164	4.65200	-734.78735	996.95233	252.01033	-899.02679	1002.94312	389.72980	-904.51019	767.77679	433.21017	-921.80475	725.06787	424.44818	-957.30664	786.24408	410.38126	-966.18872	741.80493	403.35272	0.00000	0.00000	0.00000	-976.14478	489.02872	222.31084	-946.63593	403.26547	352.80923	-950.78802	356.18826	352.87042	-1005.57031	403.49530	331.27325	-999.89551	357.12738	334.16232	-964.70898	87.21581	305.07483	0.00000	0.00000	0.00000	-895.31653	40.69675	263.91769	-1073.56238	30.71063	311.75455	-1121.61389	50.43283	243.74098	-1080.59314	26.20587	201.65179	-738.86658	992.43671	171.03926	-891.93793	973.20618	54.59682	-813.56305	705.34875	21.16254	-824.86816	664.19006	20.17586	-873.98029	716.38110	13.70700	-879.18890	672.16742	15.02604	-861.15442	444.66275	63.26616	-885.58405	428.78821	174.84378	-754.42169	436.35217	60.88934	-722.05206	407.10599	59.10074	-791.74738	384.20673	60.41596	-753.27527	364.24368	56.74045	-518.52930	247.35231	108.31826	-529.02161	214.15582	182.60493	-459.27127	278.81464	156.62563	-506.40027	101.53835	177.88559	-541.10547	76.25031	138.38722	-503.31015	113.58561	79.97653
